<svg xmlns="http://www.w3.org/2000/svg" width="32" height="32" viewBox="0 0 24 24"><path fill="#aaa" d="M11.998 0c-1.649 0-3.223.893-4.679 2.655c-.934 1.134-1.818 2.638-2.567 4.368c-1.338.207-2.399.48-3.143.814a2.04 2.04 0 0 0-1.21 1.93c.041 1.433.385 2.925.64 3.924c.22.868.95 1.512 1.838 1.623v.018A9.121 9.121 0 0 0 11.997 24l-.003-.001a9.133 9.133 0 0 0 9.127-8.667v-.016a2.175 2.175 0 0 0 1.84-1.626c.255-.997.599-2.489.64-3.93a2.036 2.036 0 0 0-1.21-1.926c-.765-.34-1.825-.616-3.154-.816c-.748-1.727-1.634-3.228-2.565-4.361C15.22.894 13.647 0 11.998 0zm-.008.828c1.412 0 2.786.797 4.084 2.37c.948 1.15 1.844 2.71 2.585 4.512c1.206.163 2.448.413 3.33.806c.491.217.8.71.784 1.245c-.038 1.346-.371 2.785-.61 3.738a1.458 1.458 0 0 1-1.397 1.104h-.014c-.146 0-.291-.01-.437-.013a8.443 8.443 0 0 1-.558 3.29a8.335 8.335 0 0 1-7.763 5.287h-.002v-.001A8.344 8.344 0 0 1 4.23 17.88a8.446 8.446 0 0 1-.573-3.288c-.14.003-.278.013-.418.013h-.007a1.458 1.458 0 0 1-1.395-1.104c-.248-.955-.577-2.386-.616-3.73a1.325 1.325 0 0 1 .784-1.252c.837-.371 2.075-.63 3.313-.803C6.066 5.914 6.96 4.352 7.906 3.2C9.204 1.625 10.578.828 11.99.828zm0 .77a3.365 3.365 0 0 0-1.691.492c-1.831 1.058-3.25 3.558-4.108 5.528c1.096-.118 2.137-.181 2.788-.172c.54-.005 1.06.21 1.44.594A3.868 3.868 0 0 1 12 7.674a3.867 3.867 0 0 1 1.582.365a1.994 1.994 0 0 1 1.427-.593c.43-.007 1.535.036 2.776.162c-.852-1.958-2.273-4.461-4.104-5.518a3.374 3.374 0 0 0-1.692-.491zm3.215 7.045v.004a.922.922 0 0 0-.93.774c-.099.53-.164 1.064-.196 1.601c-.007.614.214 1.034.651 1.25c1.252.558 2.66.898 4.27 1.034c-.189-1.377-.578-2.958-1.112-4.495c-1.087-.122-2.12-.177-2.683-.168zm-6.422.001a25.896 25.896 0 0 0-2.644.159c-.533 1.54-.924 3.123-1.108 4.5c1.59-.14 2.983-.48 4.226-1.034c.44-.214.66-.636.653-1.252a12.746 12.746 0 0 0-.198-1.6a.92.92 0 0 0-.93-.773zM5.29 8.91c-.624.09-1.242.21-1.79.364l1.509.533c.087-.299.183-.598.281-.897zm13.453.01c.096.29.188.581.274.872l1.46-.515a14.497 14.497 0 0 0-1.734-.357zm-6.746.34a.859.859 0 0 0-.478.144c-.303.2-.408.581-.378.868c.122 1.139.07 2.388-1.229 3.01l-.015.008a11.37 11.37 0 0 1-1.93.707c-1.162.308-2.351.5-3.548.573a7.574 7.574 0 0 0 14.627 3.007a7.584 7.584 0 0 0 .506-3.009a18.16 18.16 0 0 1-3.525-.572c-.664-.175-1.31-.41-1.931-.7l-.014-.012c-1.303-.623-1.352-1.871-1.23-3.01c.03-.287-.075-.668-.378-.87a.859.859 0 0 0-.477-.145zm-9.352 1.875c.113.726.271 1.422.407 1.95c.044.17.196.29.37.29c.289-.001.554-.024.83-.037c.075-.612.197-1.27.35-1.95a203.22 203.22 0 0 1-1.957-.253zm18.695 0c-.746.099-1.506.198-1.909.246c.155.683.275 1.344.352 1.96c.26.01.508.034.778.036a.385.385 0 0 0 .37-.289c.136-.53.296-1.226.409-1.953Z"/></svg>