<svg width="38.514" height="31.458" viewBox="0 0 38.514 31.458" xmlns="http://www.w3.org/2000/svg"><g id="svgGroup" stroke-linecap="round" fill-rule="evenodd" font-size="9pt" stroke="#1f5bde" stroke-width=".3mm" fill="#8400ff" style="stroke:#1f5bde;stroke-width:.3mm;fill:#8400ff"><path d="M 18.816 31.374 L 16.296 31.416 Q 15.653 31.448 14.542 31.456 A 107.007 107.007 0 0 1 13.818 31.458 A 5.476 5.476 0 0 1 13.401 31.443 Q 12.944 31.408 12.663 31.29 A 0.605 0.605 0 0 1 12.294 30.869 A 0.979 0.979 0 0 1 12.264 30.618 L 12.264 30.534 L 11.718 30.492 L 11.634 30.408 A 3.865 3.865 0 0 1 9.642 31.281 A 5.195 5.195 0 0 1 8.904 31.332 A 8.628 8.628 0 0 1 7.217 31.174 A 6.625 6.625 0 0 1 5.649 30.66 A 7.23 7.23 0 0 1 4.01 29.597 A 6.441 6.441 0 0 1 3.318 28.896 A 7.024 7.024 0 0 1 1.362 26.294 Q 0.258 23.91 0.049 20.066 A 34.616 34.616 0 0 1 0 18.186 A 19.275 19.275 0 0 1 0.203 15.32 A 14.154 14.154 0 0 1 0.924 12.474 A 7.493 7.493 0 0 1 1.592 11.098 Q 2.087 10.312 2.735 9.819 A 3.915 3.915 0 0 1 3.696 9.282 Q 4.941 8.777 6.699 8.677 A 15.861 15.861 0 0 1 7.602 8.652 A 14.375 14.375 0 0 1 8.995 8.715 Q 10.414 8.854 11.33 9.297 A 4.056 4.056 0 0 1 11.466 9.366 L 11.382 5.082 A 27.455 27.455 0 0 1 11.394 4.304 Q 11.404 3.958 11.422 3.575 A 52.501 52.501 0 0 1 11.466 2.772 L 11.592 1.092 L 11.592 0.63 A 0.086 0.086 0 0 1 11.593 0.619 Q 11.619 0.426 12.513 0.233 A 9.906 9.906 0 0 1 12.621 0.21 A 10.31 10.31 0 0 1 13.945 0.032 A 12.907 12.907 0 0 1 14.868 0 A 17.99 17.99 0 0 1 16.198 0.047 Q 16.822 0.093 17.368 0.185 A 9.918 9.918 0 0 1 17.724 0.252 L 17.724 0.966 L 18.564 1.092 L 18.564 4.2 Q 18.564 7.126 18.663 12.096 A 1022.843 1022.843 0 0 0 18.732 15.33 Q 18.774 17.136 18.816 19.782 A 310.035 310.035 0 0 1 18.845 22.25 Q 18.858 23.935 18.858 25.872 Q 18.858 29.43 18.823 31.101 A 63.381 63.381 0 0 1 18.816 31.374 Z M 17.304 3.36 L 17.304 0.588 Q 16.507 0.436 15.162 0.422 A 26.98 26.98 0 0 0 14.868 0.42 A 30.819 30.819 0 0 0 13.673 0.442 A 24.646 24.646 0 0 0 12.915 0.483 A 16.12 16.12 0 0 0 12.704 0.499 Q 12.043 0.554 12.014 0.623 A 0.017 0.017 0 0 0 12.012 0.63 L 12.012 1.092 L 11.928 2.562 Q 11.847 3.33 11.844 4.955 A 68.5 68.5 0 0 0 11.844 5.082 L 11.844 7.014 A 141.91 141.91 0 0 0 11.85 8.349 Q 11.86 9.392 11.886 10.206 A 0.64 0.64 0 0 0 11.7 9.951 Q 11.356 9.648 10.458 9.408 Q 9.277 9.093 7.763 9.073 A 15.63 15.63 0 0 0 7.56 9.072 Q 5.67 9.072 3.822 9.66 A 3.693 3.693 0 0 0 2.061 11.015 Q 1.679 11.54 1.392 12.238 A 7.928 7.928 0 0 0 1.239 12.642 Q 0.486 14.805 0.425 17.677 A 24.103 24.103 0 0 0 0.42 18.186 A 46.672 46.672 0 0 0 0.545 20.736 Q 0.701 22.727 1.029 24.276 A 8.277 8.277 0 0 0 2.145 27.054 A 7.691 7.691 0 0 0 3.255 28.413 A 5.396 5.396 0 0 0 5.4 29.67 Q 6.641 30.072 8.274 30.072 Q 10.416 30.072 11.382 28.224 Q 11.424 28.056 11.55 28.056 Q 11.718 28.056 11.844 29.022 A 16.687 16.687 0 0 1 11.874 29.26 Q 11.954 29.955 11.894 30.061 A 0.051 0.051 0 0 1 11.886 30.072 Q 12.852 30.198 14.028 30.198 L 15.876 30.156 Q 16.326 30.124 17.072 30.116 A 48.021 48.021 0 0 1 17.556 30.114 Q 17.598 28.644 17.598 25.536 A 471.249 471.249 0 0 0 17.589 22.508 Q 17.58 21.087 17.562 19.824 A 272.987 272.987 0 0 0 17.556 19.467 Q 17.514 16.8 17.472 14.952 Q 17.344 9.164 17.313 5.444 A 258.836 258.836 0 0 1 17.304 3.36 Z M 10.075 13.964 A 7.981 7.981 0 0 0 9.492 13.944 Q 5.964 13.944 5.502 16.926 Q 5.208 17.724 5.208 19.362 A 8.54 8.54 0 0 0 5.282 20.503 A 6.614 6.614 0 0 0 6.258 23.226 A 4.559 4.559 0 0 0 6.657 23.762 A 3.025 3.025 0 0 0 9.03 24.864 Q 9.639 24.864 10.106 24.713 A 2.035 2.035 0 0 0 11.025 24.129 A 2.851 2.851 0 0 0 11.217 23.887 Q 11.489 23.504 11.658 23.005 A 4.999 4.999 0 0 0 11.865 22.134 Q 11.995 21.268 12.036 20.005 A 38.425 38.425 0 0 0 12.054 18.774 A 72.939 72.939 0 0 0 12.054 18.615 Q 12.049 16.39 11.907 15.498 Q 11.824 14.978 11.629 14.651 A 1.142 1.142 0 0 0 11.256 14.259 Q 10.878 14.023 10.075 13.964 Z M 11.634 18.774 L 11.634 17.178 A 8.773 8.773 0 0 0 11.621 16.671 Q 11.593 16.201 11.511 15.901 A 1.291 1.291 0 0 0 11.403 15.624 Q 11.187 15.232 10.44 15.206 A 3.126 3.126 0 0 0 10.332 15.204 Q 7.354 15.204 6.826 17.47 A 4.041 4.041 0 0 0 6.762 17.808 L 6.72 17.892 Q 6.468 18.48 6.468 19.656 A 13.381 13.381 0 0 0 6.557 21.276 Q 6.762 22.943 7.436 23.733 A 1.994 1.994 0 0 0 9.03 24.444 A 3.159 3.159 0 0 0 9.698 24.378 Q 10.112 24.289 10.418 24.078 A 1.702 1.702 0 0 0 10.773 23.751 A 2.952 2.952 0 0 0 11.246 22.914 Q 11.384 22.547 11.457 22.109 A 5.445 5.445 0 0 0 11.487 21.903 A 14.727 14.727 0 0 0 11.565 21.101 Q 11.624 20.268 11.633 19.148 A 49.886 49.886 0 0 0 11.634 18.774 Z" id="0" vector-effect="non-scaling-stroke"/><path d="M 38.472 10.122 L 38.43 12.264 Q 38.398 12.714 38.39 13.484 A 51.399 51.399 0 0 0 38.388 13.986 A 14.347 14.347 0 0 0 38.437 15.197 A 11.922 11.922 0 0 0 38.514 15.876 Q 37.795 16.631 34.549 19.79 A 1246.943 1246.943 0 0 1 33.39 20.916 L 30.492 23.772 Q 30.782 23.804 31.268 23.812 A 20.461 20.461 0 0 0 31.584 23.814 L 33.18 23.814 A 40.576 40.576 0 0 0 34.919 23.779 Q 36.293 23.72 37.422 23.562 L 37.422 24.528 L 38.262 24.402 Q 38.262 26.586 38.304 27.72 L 38.346 31.122 A 1012.521 1012.521 0 0 1 30.936 31.276 Q 25.095 31.374 20.37 31.374 L 20.412 30.534 L 19.53 30.534 L 19.614 28.686 Q 19.614 27.678 19.53 26.586 Q 19.461 25.894 19.449 25.458 A 6.254 6.254 0 0 1 19.446 25.284 A 1.861 1.861 0 0 1 19.581 24.621 Q 19.848 23.923 20.643 23.058 A 31.212 31.212 0 0 1 21.627 22.04 Q 22.096 21.574 22.643 21.062 A 68.67 68.67 0 0 1 23.814 19.992 L 24.738 19.152 L 25.746 18.186 A 697.455 697.455 0 0 0 26.329 17.632 Q 27.489 16.527 27.762 16.254 A 253.48 253.48 0 0 0 25.486 16.409 Q 22.67 16.615 21.192 16.804 A 21.422 21.422 0 0 0 20.622 16.884 Q 20.553 16.399 20.541 16.086 A 3.254 3.254 0 0 1 20.538 15.96 L 19.782 16.044 Q 19.666 14.187 19.657 13.934 A 0.982 0.982 0 0 1 19.656 13.902 A 11.286 11.286 0 0 1 19.664 13.494 Q 19.68 13.069 19.725 12.497 A 39.39 39.39 0 0 1 19.74 12.306 L 19.782 10.752 L 19.74 8.862 L 27.174 8.82 L 31.962 8.82 Q 32.382 8.904 32.802 8.904 Q 33.768 8.904 34.314 8.862 L 35.994 8.82 L 36.708 8.82 A 5.664 5.664 0 0 1 36.898 8.823 Q 37.278 8.836 37.38 8.904 L 37.632 9.282 L 37.632 9.66 A 1.851 1.851 0 0 1 37.851 9.674 Q 37.957 9.687 38.075 9.711 A 3.554 3.554 0 0 1 38.22 9.744 L 38.472 10.122 Z M 34.692 9.282 L 32.886 9.324 A 6.057 6.057 0 0 1 32.458 9.308 Q 32.24 9.292 31.999 9.262 A 10.284 10.284 0 0 1 31.836 9.24 L 20.16 9.282 L 20.202 10.416 L 20.16 11.928 Q 20.091 12.828 20.079 13.414 A 11.389 11.389 0 0 0 20.076 13.65 A 6.527 6.527 0 0 0 20.079 13.82 Q 20.091 14.248 20.15 15.382 A 267.694 267.694 0 0 0 20.16 15.582 A 45.476 45.476 0 0 1 21.817 15.398 Q 24.345 15.159 28.519 14.957 A 319.208 319.208 0 0 1 29.526 14.91 A 27.498 27.498 0 0 1 28.568 15.988 Q 28.04 16.554 27.426 17.157 Q 26.208 18.354 24.99 19.488 Q 22.117 22.154 20.528 23.992 A 22.484 22.484 0 0 0 19.908 24.738 A 3.524 3.524 0 0 0 19.884 24.96 Q 19.875 25.075 19.871 25.209 A 8.447 8.447 0 0 0 19.866 25.494 A 4.47 4.47 0 0 0 19.871 25.693 Q 19.887 26.039 19.95 26.67 A 28.87 28.87 0 0 1 20.022 27.986 A 23.896 23.896 0 0 1 20.034 28.728 L 19.992 30.114 Q 26.417 30.114 36.066 29.887 A 1262.126 1262.126 0 0 0 37.086 29.862 L 37.044 26.796 Q 37.012 26.056 37.004 24.824 A 131.167 131.167 0 0 1 37.002 24.024 Q 35.196 24.276 33.306 24.276 L 29.904 24.234 Q 28.518 24.234 27.888 24.276 A 53.678 53.678 0 0 1 29.16 22.909 Q 30.614 21.396 32.674 19.434 A 180.765 180.765 0 0 1 32.97 19.152 Q 35.91 16.296 37.212 14.91 A 2.716 2.716 0 0 1 37.17 14.656 Q 37.138 14.399 37.13 14.044 A 10.778 10.778 0 0 1 37.128 13.818 Q 37.128 12.474 37.17 11.802 L 37.212 9.282 A 0.213 0.213 0 0 0 37.157 9.268 Q 37.018 9.245 36.582 9.241 A 22.136 22.136 0 0 0 36.372 9.24 Q 35.476 9.24 34.886 9.271 A 13.145 13.145 0 0 0 34.692 9.282 Z" id="1" vector-effect="non-scaling-stroke"/></g></svg>