<svg version="1.1" id="Layer_1" xmlns="http://www.w3.org/2000/svg" xmlns:xlink="http://www.w3.org/1999/xlink" x="0px" y="0px"
	 width="100%" viewBox="0 0 1024 1024" enable-background="new 0 0 1024 1024" xml:space="preserve">
<path fill="#000000" opacity="1.000000" stroke="black" stroke-width="10" 
	d="
M511.918701,181.707306 
	C548.973816,183.329300 582.056030,195.370239 612.526733,215.207901 
	C652.320801,241.115479 683.353149,275.565460 709.559387,314.725708 
	C720.606750,331.233887 730.266846,348.526459 738.987793,366.360199 
	C740.428467,369.306213 742.100098,372.139313 743.967651,375.582520 
	C748.356506,368.022614 750.386230,360.342072 752.629028,352.750580 
	C755.695923,342.369232 757.677307,331.745728 759.717163,321.129395 
	C761.120178,313.828033 765.409546,309.870422 771.573486,309.675140 
	C778.007080,309.471313 782.365601,313.407410 784.347046,320.739655 
	C789.866150,341.162384 794.478027,361.807220 796.041931,382.904907 
	C798.431091,415.136780 795.955139,446.776855 781.303833,476.407806 
	C781.091003,476.838257 781.014221,477.336029 780.884277,477.768372 
	C781.639038,479.420349 783.336609,479.467468 784.607727,480.137268 
	C792.048218,484.057953 794.421082,492.420776 789.381714,499.145203 
	C768.157349,527.467041 740.572144,546.248352 706.148010,555.310242 
	C683.677307,561.225525 660.914612,560.392517 638.131348,560.202515 
	C628.914917,560.125671 622.883972,554.062317 623.980042,545.126343 
	C628.386658,509.197845 637.609009,474.861145 659.753296,445.250671 
	C664.697876,438.639008 670.607727,436.648590 676.643738,439.034393 
	C684.374023,442.089905 687.014282,450.761505 681.993896,458.124786 
	C677.769653,464.320587 673.222839,470.273682 670.099548,477.154480 
	C666.676086,484.696289 663.550964,492.335724 661.171631,501.525421 
	C669.871704,494.335083 676.742615,486.922272 683.555664,479.496277 
	C697.085632,464.749146 709.066406,448.757935 721.239197,432.885010 
	C728.569214,423.326965 728.243530,414.216583 724.821472,403.919800 
	C714.090393,371.630524 697.331360,342.586609 677.226624,315.366180 
	C659.034973,290.735809 638.801575,268.004761 614.196777,249.501221 
	C592.726746,233.355179 569.732788,220.213089 543.502747,213.254135 
	C507.596588,203.728043 473.107849,208.383728 439.895721,223.804916 
	C404.859619,240.073029 375.892761,264.376678 350.643433,293.320496 
	C321.247803,327.017303 297.944366,364.467010 281.536224,406.115692 
	C271.998505,430.325287 264.515778,455.156403 260.577057,480.914520 
	C253.325165,528.340027 258.581055,574.422913 276.203583,619.065613 
	C287.820770,648.495239 304.427551,674.867920 324.999146,698.836121 
	C327.595001,701.860657 330.213837,703.320068 334.060669,701.579651 
	C340.627289,698.608643 346.670593,700.049622 351.575775,704.781433 
	C356.089752,709.135864 356.429626,714.708191 354.016022,720.495667 
	C352.644226,723.785034 355.697235,724.916321 357.473083,726.315552 
	C367.838928,734.482971 379.110870,741.265259 390.643921,747.640503 
	C415.519043,761.390930 442.023956,770.523804 470.024445,775.108582 
	C503.470856,780.585022 536.664246,779.193726 569.422974,770.161560 
	C571.607788,769.559143 573.991882,769.224304 576.143494,767.211670 
	C572.593079,765.495605 568.919312,765.871094 565.532898,765.526001 
	C528.064636,761.708618 493.525421,749.658752 461.821259,729.350037 
	C455.512054,725.308594 449.103821,721.393616 442.544678,717.776794 
	C431.377808,711.619202 419.396393,708.620422 406.559998,709.265198 
	C402.913544,709.448303 399.241364,709.474792 395.807037,707.698242 
	C391.648987,705.547424 389.059265,702.410034 388.672241,697.616211 
	C388.247040,692.350037 389.932220,688.024170 394.513641,685.236267 
	C396.915009,683.774902 399.541962,682.591614 402.199768,681.662231 
	C409.217377,679.207947 415.342834,675.276550 421.256073,670.882690 
	C428.188599,665.731384 433.147644,665.534790 438.996765,669.913391 
	C444.084656,673.722168 445.151245,678.912842 442.424774,686.507385 
	C442.262115,686.960449 442.225067,687.458679 442.034424,688.411682 
	C453.842407,693.347595 464.676910,700.150513 475.526428,706.920410 
	C494.875336,718.993652 515.320740,728.657959 537.580872,733.886780 
	C568.757568,741.210022 600.082458,743.054626 631.452393,734.756348 
	C651.787109,729.377258 667.773193,717.316284 681.572632,701.544434 
	C676.734497,702.830811 671.938416,704.310425 667.051575,705.372742 
	C629.297913,713.579895 592.651184,708.998291 556.666870,695.949524 
	C542.016296,690.636780 528.915283,682.212036 514.763611,675.920288 
	C500.629761,669.636475 486.170959,666.083618 470.592529,669.254517 
	C464.698975,670.454102 459.187775,669.477051 455.523376,664.029175 
	C452.558258,659.620972 452.556763,654.987915 455.099670,650.324524 
	C456.799347,647.207397 459.694763,645.535950 462.715179,644.112305 
	C474.503204,638.556274 485.650787,631.915100 496.412933,624.590149 
	C499.732941,622.330566 503.190125,620.373108 507.457855,620.483093 
	C513.507385,620.639221 518.467346,624.231934 520.200806,629.896118 
	C521.948425,635.606506 519.994324,641.228271 515.018921,644.788513 
	C514.499878,645.159973 513.962646,645.506042 512.710510,646.353394 
	C528.373535,652.236694 542.292175,660.362061 556.876831,667.126953 
	C585.187256,680.258301 615.066833,685.591125 645.906494,682.410706 
	C684.342285,678.446960 714.276367,660.532837 731.705017,624.708618 
	C732.784180,622.490479 733.578308,620.133728 735.062805,616.461609 
	C726.358093,621.841675 718.570251,626.053406 710.200134,629.168579 
	C686.436829,638.012573 661.959106,639.607361 636.913025,637.681824 
	C618.001953,636.228027 599.975403,630.922485 581.726501,626.487244 
	C571.395691,623.976501 561.084595,623.231750 550.602112,625.768799 
	C543.088074,627.587280 536.222290,624.166077 534.127625,618.043640 
	C531.659851,610.830750 534.440063,604.066956 542.248657,600.978699 
	C562.786682,592.856140 579.383606,579.768311 593.094971,562.632751 
	C598.561340,555.801270 605.463684,554.879883 611.508423,559.472595 
	C617.620789,564.116577 618.709717,572.233948 613.874512,578.959534 
	C609.784241,584.648987 605.013000,589.789001 600.048889,594.727112 
	C597.956421,596.808533 595.635437,598.660156 592.770142,601.188049 
	C601.981995,604.982727 610.287292,606.498718 618.542542,608.199707 
	C642.305298,613.096130 666.216797,614.114929 689.872070,608.445557 
	C716.263855,602.120239 735.845337,585.837830 750.831482,563.633057 
	C753.814148,559.213623 756.743591,554.747620 759.943054,550.487488 
	C764.654541,544.214172 771.761597,542.629028 777.544250,546.299988 
	C783.227478,549.907837 784.717773,556.966187 780.729431,563.900879 
	C777.331116,569.809448 773.473999,575.465393 769.628296,581.102356 
	C765.880005,586.596497 761.888672,591.924744 757.675354,597.782837 
	C765.616211,604.766968 763.674805,612.983948 760.577393,621.526306 
	C732.042053,700.223145 679.761841,756.407715 602.016357,788.117371 
	C580.013916,797.091370 556.768616,801.458496 533.065063,803.430786 
	C485.685364,807.373108 440.094696,800.695007 396.674896,780.883301 
	C371.198883,769.258972 347.821167,754.287598 326.667725,735.953247 
	C322.647156,732.468567 319.417114,731.886902 314.753387,734.624573 
	C301.970886,742.128174 288.950287,749.226624 276.008789,756.458374 
	C273.829620,757.676025 271.641205,758.918701 269.341797,759.871765 
	C262.860870,762.558350 256.321075,760.409302 252.907288,754.622131 
	C249.366135,748.619141 250.574524,741.380676 256.425903,737.308960 
	C261.606903,733.703674 267.181946,730.639221 272.709045,727.562500 
	C281.004303,722.944885 289.414581,718.534241 297.760803,714.007629 
	C298.610535,713.546814 299.356812,712.895264 300.167419,712.320618 
	C299.576752,709.141907 297.122070,707.430176 295.444977,705.232849 
	C264.603516,664.824219 243.497269,620.060425 235.024368,569.706116 
	C229.906952,539.293274 229.371475,508.864410 234.382797,478.300110 
	C244.848694,414.467987 269.656952,356.806641 307.732330,304.663757 
	C329.585236,274.737000 354.334595,247.671829 384.436005,225.802338 
	C411.015839,206.491379 439.806030,191.923355 472.254333,185.354446 
	C485.174469,182.738876 498.223724,181.325867 511.918701,181.707306 
M769.377075,427.961853 
	C770.936157,417.669159 770.958191,407.338867 770.214539,396.901764 
	C758.711426,423.472229 742.969299,447.274109 725.340210,469.979462 
	C707.653809,492.758728 687.911865,513.586182 666.272827,533.195129 
	C696.508423,536.864136 746.569336,515.963806 756.737000,495.766937 
	C747.579224,489.030823 746.087585,482.306335 752.564758,473.243988 
	C762.122253,459.871979 766.970642,444.876648 769.377075,427.961853 
z"/>
<path fill="#000000" opacity="1.000000" stroke="black" stroke-width="10" 
	d="
M488.927460,526.656860 
	C494.638702,528.879761 497.711975,532.857788 497.928589,538.511902 
	C498.146881,544.210083 494.198639,547.537415 489.844177,550.246582 
	C477.259857,558.075806 464.894012,566.193237 453.292908,575.464050 
	C435.823669,589.424316 422.951050,607.085449 411.815796,626.191406 
	C404.277618,639.125427 394.912018,649.996704 380.427399,655.629211 
	C373.561340,658.299133 373.071564,664.946289 372.387024,671.078430 
	C372.001129,674.535217 372.225281,678.036072 371.489960,681.499634 
	C369.995087,688.540649 365.381165,692.413879 358.552429,692.067017 
	C352.008636,691.734558 346.827454,686.422424 346.693420,679.596069 
	C346.579224,673.782349 346.727112,667.998535 347.562653,662.180725 
	C349.652588,647.628784 357.298676,637.129822 370.334320,630.885864 
	C379.760193,626.370911 386.581329,619.693115 391.637421,610.671387 
	C410.681854,576.689941 437.830597,550.764587 471.407562,531.397522 
	C476.627167,528.386902 481.735413,524.262634 488.927460,526.656860 
z"/>
<path fill="#000000" opacity="1.000000" stroke="black" stroke-width="10" 
	d="
M507.589478,546.658203 
	C519.378906,525.279419 533.840088,506.565643 552.797668,491.543457 
	C569.278381,478.483856 587.663147,468.945496 607.536865,462.285339 
	C614.314026,460.014160 620.553406,462.485962 623.602234,467.879028 
	C627.670288,475.075317 624.779785,482.217560 616.063171,485.792999 
	C607.121216,489.460907 598.392273,493.543457 589.909363,498.165436 
	C565.199341,511.628967 545.402954,530.093933 532.010559,555.068542 
	C525.244141,567.686890 518.594604,580.365112 508.567352,590.864807 
	C506.375732,593.159729 504.199677,595.420044 501.654938,597.320496 
	C496.180878,601.408508 489.961029,601.321472 485.302429,597.061462 
	C480.626007,592.785156 479.662750,586.327698 482.981598,580.705811 
	C483.818970,579.287354 484.805054,577.831360 486.059814,576.804443 
	C495.870941,568.774658 501.592072,557.847900 507.589478,546.658203 
z"/>
</svg>